<svg width="50" height="49" viewBox="0 0 50 49" fill="none" xmlns="http://www.w3.org/2000/svg">
<path d="M49.0375 20.5483C47.4168 11.5733 42.3844 5.23273 33.9464 1.70575C30.0937 0.0955133 26.041 -0.320144 21.8914 0.229991C19.0805 0.602861 16.4197 1.41322 13.973 2.86016C13.2683 3.27669 12.54 3.67751 12.0396 4.36212C12.0379 4.36474 12.0361 4.36823 12.0344 4.37085C12.0344 4.37085 12.0353 4.37172 12.0361 4.3726C12.5985 4.11587 13.1521 3.83469 13.7258 3.60503C17.5558 2.07251 21.5054 1.62017 25.5625 2.41569C29.3785 3.16492 32.8216 4.7184 35.7496 7.33023C39.0242 10.2521 40.9872 13.8367 41.2387 18.2578C41.3776 20.6994 40.9043 23.0466 39.632 25.1537C37.627 28.4729 34.7192 30.4639 30.7844 30.7206C28.7367 30.8542 26.7527 30.4691 24.9276 29.4858C22.3245 28.0834 20.813 25.8977 20.5501 22.9567C20.3711 20.9587 20.9815 19.1372 22.2363 17.5488C22.3376 17.4204 22.4983 17.32 22.5009 17.0938C22.3455 17.1095 22.2032 17.1157 22.0634 17.1401C19.8428 17.5226 18.3697 18.9145 17.3838 20.8129C16.3778 22.7497 16.2276 24.828 16.8022 26.9456C16.8468 27.1089 16.9253 27.2731 16.8607 27.4503C16.8153 27.3971 16.7533 27.3508 16.728 27.2897C16.1822 25.9589 15.7509 24.5949 15.5282 23.168C15.3483 22.0162 15.3623 20.8592 15.4007 19.7004C15.4059 19.641 15.412 19.5817 15.4173 19.5223C15.426 19.414 15.4347 19.3057 15.4435 19.1974C15.4557 18.6001 15.6024 18.0168 15.7578 17.4536C16.2486 15.6836 16.9673 14.0113 18.0073 12.4788C19.4726 10.3202 21.2653 8.53267 23.5977 7.318C23.8475 7.18789 24.1382 7.12764 24.3932 6.90496C23.6021 6.7504 22.8555 6.65784 22.1045 6.63252C19.8821 6.55742 17.727 6.94775 15.6164 7.61403C15.2898 7.71707 14.992 7.91529 14.6637 8.00349C13.7826 8.24101 12.9871 8.65405 12.2117 9.11773C12.1208 9.13869 12.0134 9.12384 11.9628 9.23212L11.9506 9.23824C11.3009 9.50457 10.7368 9.91586 10.1683 10.3141C8.08389 11.7741 6.32259 13.5328 5.08697 15.7857C4.80841 16.2931 4.61018 16.8423 4.2801 17.3287C4.65821 14.7998 5.11141 12.2945 6.06585 9.86609C5.75236 9.91848 5.63622 10.101 5.49825 10.2433C4.18317 11.5977 3.11434 13.1285 2.27691 14.8173C0.13138 19.1433 -0.382954 23.7295 0.354052 28.4353C1.27182 34.2938 4.0583 39.1962 8.57552 43.027C14.372 47.9433 21.102 49.8015 28.6249 48.6873C32.2278 48.1538 35.533 46.809 38.5413 44.7569C39.2888 44.2469 39.9786 43.6592 40.6798 43.0855C41.9556 42.042 43.0926 40.8928 44.0785 39.5821C45.3935 38.0671 46.3611 36.3293 47.1819 34.5209C49.2078 30.0578 49.9099 25.3764 49.0384 20.5492L49.0375 20.5483Z" fill="white"/>
<path d="M12.0289 4.38283C12.0289 4.38283 12.0336 4.37534 12.0355 4.37159L12.0195 4.36035C12.0223 4.36785 12.0252 4.37628 12.028 4.38377L12.0289 4.38283Z" fill="white"/>
</svg>
