<svg width="46" height="47" viewBox="0 0 46 47" fill="none" xmlns="http://www.w3.org/2000/svg">
<mask id="mask0_526_1268" style="mask-type:luminance" maskUnits="userSpaceOnUse" x="0" y="0" width="46" height="47">
<path d="M45.5787 0.928711H0.09375V46.2851H45.5787V0.928711Z" fill="white"/>
</mask>
<g mask="url(#mask0_526_1268)">
<path d="M21.2309 28.4627C21.2309 32.278 19.2375 34.6792 16.0536 34.6792C12.8697 34.6792 10.8763 32.2646 10.8763 28.4627C10.8763 24.6341 12.8697 22.2329 16.0536 22.2329C19.2375 22.2329 21.2309 24.6341 21.2309 28.4627ZM25.6723 15.0025L24.281 15.0959C23.4917 15.1493 23.1439 15.4294 23.1439 15.9363C23.1439 16.4699 23.5854 16.7634 24.2008 16.7634C25.0436 16.7634 25.6723 16.2165 25.6723 15.4828V15.0025ZM45.5787 23.6069C45.5787 36.2667 35.5318 46.2851 22.8362 46.2851C10.1406 46.2851 0.09375 36.2667 0.09375 23.6069C0.09375 10.9471 10.1406 0.928711 22.8362 0.928711C35.5318 0.928711 45.5787 10.9471 45.5787 23.6069ZM28.1071 14.7224C28.1071 16.5633 29.1238 17.6839 30.7827 17.6839C32.1874 17.6839 33.0703 16.8968 33.2175 15.7763H32.1205C31.9733 16.3899 31.4917 16.7234 30.7827 16.7234C29.8462 16.7234 29.271 15.963 29.271 14.7224C29.271 13.4951 29.8462 12.7614 30.7827 12.7614C31.5318 12.7614 32.0001 13.1883 32.1205 13.7352H33.2175C33.0703 12.6413 32.2141 11.8142 30.7827 11.8142C29.1238 11.8009 28.1071 12.9215 28.1071 14.7224ZM12.8161 11.921V17.5772H13.9399V14.1087C13.9399 13.375 14.4616 12.7881 15.1439 12.7881C15.8128 12.7881 16.2409 13.1883 16.2409 13.8286V17.5772H17.3379V14.002C17.3379 13.3217 17.8061 12.7881 18.5419 12.7881C19.2777 12.7881 19.6389 13.1616 19.6389 13.9487V17.5772H20.7626V13.6685C20.7626 12.4946 20.0937 11.8009 18.9432 11.8009C18.1539 11.8009 17.4984 12.2011 17.2175 12.8147H17.1238C16.8697 12.2011 16.3345 11.8009 15.5586 11.8009C14.7961 11.8009 14.2208 12.1744 13.98 12.8147H13.8998V11.9076L12.8161 11.921ZM23.2242 28.4627C23.2242 23.5402 20.4683 20.4453 16.0536 20.4453C11.6389 20.4453 8.88304 23.5402 8.88304 28.4627C8.88304 33.3852 11.6389 36.4668 16.0536 36.4668C20.4683 36.4668 23.2242 33.3719 23.2242 28.4627ZM23.9198 17.6705C24.669 17.6705 25.2844 17.3504 25.6322 16.7768H25.7258V17.5772H26.8094V13.7085C26.8094 12.5213 26.0068 11.8142 24.5753 11.8142C23.2777 11.8142 22.368 12.4412 22.2476 13.3884H23.3312C23.4516 12.9748 23.8931 12.748 24.5218 12.748C25.2844 12.748 25.6857 13.0949 25.6857 13.7219V14.2155L24.1472 14.3088C22.7961 14.3889 22.0335 14.9758 22.0335 16.003C22.0202 17.0169 22.8228 17.6705 23.9198 17.6705ZM36.1874 31.7977C36.1874 29.5966 34.9031 28.316 31.6656 27.6089L29.9399 27.2354C27.8128 26.7685 26.9834 25.9281 26.9834 24.7141C26.9834 23.14 28.4817 22.1928 30.4215 22.1928C32.4549 22.1928 33.7927 23.2334 33.9666 24.9409H35.9064C35.8128 22.3129 33.5787 20.4586 30.475 20.4586C27.2509 20.4586 24.99 22.2595 24.99 24.8075C24.99 27.0086 26.3412 28.4227 29.4583 29.103L31.184 29.4765C33.3379 29.9435 34.2074 30.8106 34.2074 32.1046C34.2074 33.6253 32.669 34.7326 30.5686 34.7326C28.3345 34.7326 26.7827 33.7187 26.5553 32.0512H24.6155C24.8028 34.7326 27.0636 36.4668 30.4616 36.4668C33.9265 36.4668 36.1874 34.6659 36.1874 31.7977Z" fill="white"/>
</g>
</svg>
