<svg width="48" height="48" viewBox="0 0 48 48" fill="none" xmlns="http://www.w3.org/2000/svg">
<path d="M48 24.0443C47.9883 37.3377 37.2734 48.0128 23.9563 48C10.6625 47.9872 -0.0116384 37.2737 9.52382e-06 23.9546C0.0116575 10.6611 10.7243 -0.0116381 24.0448 9.52462e-06C37.3398 0.0116572 48.0116 10.724 48 24.0431V24.0443ZM5.10064 13.177C4.88282 13.5672 4.71043 13.8491 4.56251 14.1449C2.31911 18.6118 1.68663 23.3035 2.59284 28.2153C4.21889 37.0256 11.7947 44.3193 20.6192 45.5866C21.3134 45.6868 21.7176 45.5575 22.0868 44.8901C23.9167 41.5833 25.813 38.3126 27.6813 35.0268C27.8199 34.7846 27.9283 34.5248 28.11 34.1533C27.8188 34.236 27.7046 34.2651 27.5916 34.3C22.067 35.9738 17.119 33.9855 14.2454 28.9619C11.3765 23.9476 8.4867 18.9438 5.60267 13.9376C5.46988 13.707 5.3103 13.4927 5.10064 13.1782V13.177ZM42.7852 13.092C42.6419 12.7926 42.5814 12.6249 42.4882 12.477C34.3812 -0.391351 16.3537 -1.35461 6.81988 10.5167C6.4716 10.95 6.56246 11.2423 6.80008 11.6488C8.78372 15.0441 10.7499 18.4499 12.7265 21.8487C12.8395 22.042 12.9933 22.2121 13.1925 22.4788C13.2728 22.1084 13.3194 21.8708 13.3753 21.6367C14.4679 17.03 17.939 13.7745 22.625 13.1968C24.4735 12.9685 26.3686 13.0978 28.2428 13.0943C33.0359 13.0838 37.8302 13.0908 42.7852 13.0908V13.092ZM24.0099 45.9127C25.5567 45.7264 26.8974 45.6355 28.2125 45.3967C41.4329 42.995 49.3465 28.5705 44.2948 16.1425C44.0642 15.5752 43.7811 15.3563 43.1486 15.3609C39.2722 15.3924 35.3958 15.3761 31.5193 15.3807C31.3015 15.3807 31.0837 15.4262 30.8239 15.4553C30.9043 15.5962 30.9218 15.6614 30.9649 15.6964C34.7959 18.8319 36.4522 24.7093 33.0417 30.2967C30.1262 35.0723 27.4006 39.9631 24.5935 44.8039C24.4292 45.0869 24.2883 45.3828 24.0111 45.9139L24.0099 45.9127ZM32.7086 23.9802C32.7004 19.1755 28.8345 15.3074 24.0297 15.2957C19.1842 15.2841 15.2996 19.1674 15.2996 24.021C15.2996 28.8047 19.1958 32.7031 23.9773 32.7031C28.8368 32.7031 32.7179 28.8268 32.7086 23.9802Z" fill="white"/>
</svg>
