<svg width="64" height="43" viewBox="0 0 64 43" fill="none" xmlns="http://www.w3.org/2000/svg">
<path d="M8.37095 33.2613H12.3638V16.3119H8.37095V33.2613ZM10.3594 14.0892C11.6101 14.0892 12.5883 13.1297 12.5883 11.9305C12.5883 10.7152 11.6101 9.75586 10.3594 9.75586C9.12464 9.75586 8.14648 10.7153 8.14648 11.9305C8.14648 13.1298 9.12464 14.0892 10.3594 14.0892ZM25.6577 9.80371C18.9069 9.80371 14.6734 14.3929 14.6734 21.7325C14.6734 29.072 18.9065 33.6453 25.6577 33.6453C32.3925 33.6453 36.626 29.072 36.626 21.7325C36.626 14.3929 32.3929 9.80371 25.6577 9.80371ZM25.6577 13.3216C29.7788 13.3216 32.4085 16.5835 32.4085 21.7324C32.4085 26.8652 29.7787 30.1273 25.6577 30.1273C21.5206 30.1273 18.9069 26.8653 18.9069 21.7324C18.9069 16.5836 21.5207 13.3216 25.6577 13.3216ZM38.3103 26.7694C38.4867 31.0229 41.9824 33.6452 47.3061 33.6452C52.9026 33.6452 56.4305 30.8949 56.4305 26.5135C56.4305 23.0757 54.442 21.1409 49.7437 20.0696L47.0818 19.462C44.2436 18.7904 43.073 17.895 43.073 16.3599C43.073 14.4411 44.8369 13.1619 47.4506 13.1619C50.0965 13.1619 51.9083 14.4571 52.1008 16.6158H56.0456C55.9493 12.5543 52.5819 9.80383 47.4828 9.80383C42.4476 9.80383 38.8716 12.5701 38.8716 16.6637C38.8716 19.9576 40.8921 22.0044 45.1573 22.9799L48.1559 23.6835C51.0744 24.371 52.261 25.3304 52.261 26.9934C52.261 28.9122 50.3207 30.2873 47.5307 30.2873C44.7085 30.2873 42.5759 28.8962 42.3194 26.7695L38.3103 26.7694Z" fill="white"/>
</svg>
