<svg width="46" height="53" viewBox="0 0 46 53" fill="none" xmlns="http://www.w3.org/2000/svg">
<path d="M44.5408 13.3071L45.9403 17.249C46.0089 17.4562 46.0189 17.6817 45.9675 17.8903L45.9074 18.1045L45.7473 18.7091L45.1698 20.8739L43.4216 27.44C42.0492 32.5997 41.1487 35.9976 40.9285 36.8432C39.7478 41.449 38.8114 43.0528 35.7923 45.1584C33.1306 47.0046 27.6028 50.7154 26.5435 51.3708C26.4206 51.4483 26.3005 51.5244 26.1761 51.6033L25.7544 51.888C25.3528 52.1727 24.9225 52.4236 24.4779 52.6378C23.9719 52.8703 23.4901 53 22.9998 53C22.5095 53 22.0278 52.8689 21.5217 52.6378C21.0771 52.4208 20.6469 52.1727 20.2452 51.888L19.8235 51.6033C19.7005 51.5258 19.5805 51.4497 19.4561 51.3708C18.3954 50.7154 12.869 47.0046 10.2073 45.1584C7.18818 43.0528 6.25043 41.4504 5.0711 36.8432C4.85096 35.9962 3.95038 32.5983 2.58664 27.4739L0.828362 20.8753L0.259423 18.7105L0.0907432 18.1059L0.0392814 17.8917C-0.0207573 17.6845 -0.01218 17.459 0.0664421 17.2504L1.45734 13.3085L0.406661 10.7646C0.250846 10.3672 0.338046 9.91759 0.626803 9.61036L0.896977 9.32567C1.11426 9.09172 1.36013 8.84226 1.64174 8.55758C2.41224 7.75566 3.22562 6.92837 4.04758 6.11799C4.83523 5.34144 5.89449 4.91863 7.12671 4.77911C8.16881 4.66636 9.20948 4.71991 10.233 4.92427L14.2913 0.37066C14.5015 0.13107 14.8002 0 15.1233 0H30.8835C31.2065 0 31.5039 0.13107 31.7154 0.37066L35.7738 4.92427C36.7973 4.7185 37.8379 4.66636 38.88 4.77911C40.1151 4.91863 41.1715 5.34003 41.9592 6.11799C43.0885 7.23701 44.2092 8.38563 45.3113 9.53143C45.6687 9.92041 45.7559 10.3672 45.5915 10.766L44.5494 13.3099H44.5423L44.5408 13.3071ZM42.318 13.6369C42.2308 13.3846 42.2394 13.1112 42.3451 12.8688L43.2815 10.5913L42.7726 10.0656C41.9863 9.25239 41.1987 8.45046 40.3939 7.65841C39.9993 7.27929 39.4047 7.03688 38.6185 6.94246C37.848 6.87058 37.0674 6.90723 36.307 7.04394C36.124 7.07917 35.9653 7.11581 35.8281 7.13836L35.668 7.18346C35.2577 7.29621 34.8203 7.16514 34.5387 6.84662L30.3846 2.17745H15.6136L11.4595 6.84662C11.1793 7.16514 10.7405 7.2948 10.3302 7.18346C10.1201 7.1299 9.9085 7.07917 9.69122 7.04394C8.93073 6.90582 8.15023 6.87199 7.37973 6.94246C6.60209 7.03688 5.99741 7.27929 5.6043 7.65841C4.6351 8.62381 3.67019 9.59908 2.72673 10.5913L3.66305 12.8688C3.75882 13.1182 3.76883 13.386 3.68163 13.6369L2.26357 17.6563L2.39652 18.1581L2.97403 20.313L4.7223 26.8876C5.56284 30.0276 6.39338 33.169 7.21534 36.3077C8.27602 40.4568 8.94931 41.6139 11.4838 43.384C14.1098 45.2049 19.6133 48.8875 20.6283 49.526C20.7612 49.6035 20.8927 49.6894 21.0671 49.8022L21.4774 50.0869C21.9077 50.3716 22.1964 50.5435 22.458 50.6633C22.6939 50.7761 22.8769 50.8212 23.0012 50.8212C23.1342 50.8212 23.3086 50.7761 23.5444 50.6633C23.8146 50.5435 24.0948 50.3716 24.5251 50.0869L24.9439 49.8022C25.1097 49.6894 25.2513 49.6035 25.3742 49.526C26.3977 48.896 31.9013 45.2049 34.5187 43.384C37.0532 41.6153 37.7293 40.4568 38.7971 36.3077C39.0144 35.455 39.9179 32.0557 41.2816 26.9214L43.0399 20.3144L43.6174 18.1595L43.7503 17.6577L42.3323 13.6383H42.3194L42.318 13.6369ZM34.1113 9.32426C34.1113 9.32426 39.885 16.2343 39.885 17.7099C39.885 19.1855 39.1588 19.5716 38.434 20.3397L34.1012 24.8933C33.6896 25.326 32.8433 25.9729 33.3408 27.1455C33.8397 28.3181 34.5844 29.8204 33.7625 31.3313C32.9405 32.8491 31.5224 33.8667 30.619 33.6947C29.7184 33.5312 27.6013 32.4277 26.8137 31.9345C26.0346 31.4327 23.5673 29.4047 23.5673 28.6394C23.5673 27.8741 26.1232 26.4817 26.5936 26.1632C27.0653 25.8517 29.2195 24.6256 29.2624 24.1534C29.3039 23.6785 29.2896 23.5305 28.6492 22.3495C28.0188 21.1684 26.8737 19.5886 27.0653 18.5442C27.2483 17.4928 29.0966 16.9488 30.4174 16.457C31.7297 15.9651 34.2685 15.0335 34.5916 14.887C34.9061 14.7418 34.8189 14.6023 33.8654 14.5163C32.9033 14.4219 30.1816 14.0681 28.9465 14.4036C27.7214 14.7503 25.6215 15.2576 25.4571 15.5353C25.2884 15.8115 25.1326 15.82 25.307 16.7614C25.4814 17.7028 26.3834 22.2283 26.4706 23.0344C26.5578 23.8363 26.7236 24.3606 25.8474 24.5593C24.9739 24.7665 23.5044 25.1019 22.9969 25.1019C22.4895 25.1019 21.02 24.758 20.1465 24.5593C19.2717 24.3606 19.4361 23.8349 19.5233 23.0344C19.6105 22.2311 20.5125 17.7028 20.6869 16.7614C20.8613 15.82 20.7055 15.8129 20.5368 15.5353C20.3624 15.259 18.2725 14.7517 17.0474 14.4036C15.8123 14.0667 13.0906 14.4303 12.1285 14.5163C11.1765 14.6023 11.0893 14.7418 11.4023 14.887C11.7268 15.0349 14.2656 15.9651 15.5764 16.457C16.8959 16.9488 18.7428 17.4928 18.9286 18.5442C19.1216 19.59 17.9737 21.1684 17.3447 22.3495C16.7043 23.5305 16.6872 23.6799 16.7315 24.1534C16.7772 24.6354 18.9286 25.8517 19.4003 26.1632C19.8706 26.4817 22.4266 27.8614 22.4266 28.6394C22.4266 29.4174 19.9607 31.4243 19.1802 31.9345C18.3925 32.4362 16.2755 33.5312 15.3749 33.6947C14.4729 33.8667 13.0548 32.8477 12.2314 31.3313C11.4095 29.8204 12.1528 28.3181 12.6531 27.1455C13.1592 25.9729 12.3043 25.3246 11.8926 24.8933L7.55985 20.3397C6.83366 19.5716 6.10891 19.1855 6.10891 17.7099C6.10891 16.2343 11.8826 9.32426 11.8826 9.32426C11.8826 9.32426 16.7558 10.2474 17.4133 10.2474C18.0709 10.2474 19.4961 9.70479 20.807 9.27212C22.1192 8.84086 22.9955 8.83381 22.9955 8.83381C22.9955 8.83381 23.8704 8.84227 25.1841 9.27212C26.5035 9.70479 27.9201 10.2474 28.5777 10.2474C29.2353 10.2474 34.1084 9.32426 34.1084 9.32426H34.1113ZM29.7785 35.7467C30.1401 35.9708 29.92 36.3838 29.5955 36.6079C29.2724 36.8418 24.8982 40.1876 24.4679 40.5583C24.0491 40.9289 23.4258 41.5406 22.9984 41.5406C22.571 41.5406 21.9477 40.9289 21.5289 40.5583C21.0986 40.1876 16.7243 36.8418 16.4013 36.6079C16.0768 36.3838 15.8566 35.9708 16.2183 35.7467C16.5757 35.5297 17.6878 34.9702 19.2359 34.1767C20.7769 33.3819 22.7025 32.7181 22.9998 32.7181C23.2971 32.7181 25.2227 33.3819 26.7637 34.1767C28.3104 34.9702 29.4225 35.5297 29.7813 35.7467H29.7785Z" fill="white"/>
</svg>
